<?xml version="1.0" standalone="no"?>
<!DOCTYPE svg PUBLIC "-//W3C//DTD SVG 20010904//EN"
 "http://www.w3.org/TR/2001/REC-SVG-20010904/DTD/svg10.dtd">
<svg version="1.0" xmlns="http://www.w3.org/2000/svg"
 width="343.000000pt" height="343.000000pt" viewBox="0 0 343.000000 343.000000"
 preserveAspectRatio="xMidYMid meet">
<metadata>
Created by potrace 1.13, written by Peter Selinger 2001-2015
</metadata>
<g transform="translate(0.000000,343.000000) scale(0.100000,-0.100000)"
fill="#000000" stroke="none">
<path d="M1488 3415 c-750 -107 -1328 -663 -1464 -1410 -26 -140 -26 -440 0
-580 66 -362 223 -662 481 -920 258 -258 558 -415 920 -481 140 -26 440 -26
580 0 362 66 662 223 920 481 258 258 415 558 481 920 26 140 26 440 0 580
-66 362 -223 662 -481 920 -257 257 -563 417 -920 481 -124 22 -395 27 -517 9z
m1409 -1337 c189 -189 343 -350 343 -358 0 -18 -680 -700 -698 -700 -7 0 -35
21 -62 46 -35 33 -50 55 -50 72 0 21 58 84 277 304 l278 278 -278 278 c-219
220 -277 283 -277 304 0 17 15 39 50 72 27 25 55 46 62 46 7 0 167 -154 355
-342z m-1957 286 c35 -33 50 -55 50 -72 0 -21 -58 -84 -277 -304 l-278 -278
278 -278 c219 -220 277 -283 277 -304 0 -17 -15 -39 -50 -72 -27 -25 -55 -46
-62 -46 -18 0 -698 682 -698 700 0 18 680 700 698 700 7 0 35 -21 62 -46z
m318 -1 c45 -4 70 -12 87 -27 12 -11 98 -105 190 -208 92 -104 171 -188 175
-188 5 0 82 82 171 183 229 255 204 233 282 241 37 3 95 9 130 12 l63 6 -11
-124 c-6 -67 -15 -130 -20 -139 -6 -9 -100 -96 -210 -193 -110 -97 -204 -183
-210 -191 -7 -11 0 -25 31 -57 76 -81 76 -70 -7 -154 -40 -41 -77 -74 -81 -74
-4 0 -35 25 -69 55 -34 30 -65 55 -70 55 -4 0 -35 -25 -67 -55 -33 -30 -64
-55 -69 -55 -4 0 -42 33 -82 74 -83 84 -83 73 -7 154 31 32 38 46 31 57 -6 8
-100 94 -210 191 -110 97 -204 184 -210 193 -5 9 -14 72 -20 139 l-11 124 66
-6 c36 -4 94 -9 128 -13z m199 -875 c185 -185 194 -199 151 -245 -35 -38 -71
-30 -132 27 l-52 49 -94 -94 -94 -94 23 -25 c20 -21 22 -28 11 -41 -7 -8 -17
-15 -24 -15 -14 0 -226 211 -226 226 0 6 7 17 15 24 13 11 20 9 41 -11 l25
-23 94 94 95 94 -50 51 c-39 39 -50 58 -50 82 0 35 38 73 74 73 14 0 79 -58
193 -172z m747 151 c43 -34 36 -73 -24 -134 l-50 -51 95 -94 94 -94 25 23 c21
20 28 22 41 11 8 -7 15 -17 15 -24 0 -14 -211 -226 -226 -226 -6 0 -17 7 -24
15 -11 13 -9 20 11 41 l23 25 -94 94 -94 94 -52 -49 c-60 -56 -93 -64 -131
-28 -46 43 -36 60 149 245 116 116 180 173 194 173 12 0 33 -9 48 -21z"/>
</g>
</svg>
